<?xml version="1.0" encoding="UTF-8" standalone="no"?>
<svg
   version="1.1"
   viewBox="-10 0 1280 1536"
   id="svg4"
   width="1280"
   height="1536"
   xmlns="http://www.w3.org/2000/svg"
   xmlns:svg="http://www.w3.org/2000/svg">
  <defs
     id="defs8" />
  <path
     fill="currentColor"
     d="m 1270,1271 c 0,146 -96,265 -213,265 H 203 c -117,0 -213,-119 -213,-265 0,-263 65,-567 327,-567 81,79 191,128 313,128 122,0 232,-49 313,-128 262,0 327,304 327,567 z M 1014,384 C 1014,596 842,768 630,768 418,768 246,596 246,384 246,172 418,0 630,0 c 212,0 384,172 384,384 z"
     id="path2" />
</svg>
