<?xml version="1.0" encoding="UTF-8" standalone="no"?>
<svg
   version="1.1"
   viewBox="-10 0 1536 1536"
   id="svg4"
   width="1536"
   height="1536"
   xmlns="http://www.w3.org/2000/svg"
   xmlns:svg="http://www.w3.org/2000/svg">
  <defs
     id="defs8" />
  <path
     fill="currentColor"
     d="M 758,0 Q 967,0 1143.5,103 1320,206 1423,382.5 1526,559 1526,768 1526,977 1423,1153.5 1320,1330 1143.5,1433 967,1536 758,1536 549,1536 372.5,1433 196,1330 93,1153.5 -10,977 -10,768 -10,559 93,382.5 196,206 372.5,103 549,0 758,0 Z m -31,218 q -9,0 -29,3.5 -20,3.5 -29,3.5 -9,0 -27,-2.5 -18,-2.5 -31.5,-2.5 -13.5,0 -22.5,5 -9,5 -13.5,14.5 -4.5,9.5 -7.5,22 -3,12.5 -6,18.5 -3,6 -10.5,16.5 Q 543,307 538,316 q -5,9 -5,18 0,9 5,18 5,9 12.5,19.5 7.5,10.5 10.5,16.5 3,6 5,19.5 2,13.5 6.5,22.5 4.5,9 15.5,12 11,3 24.5,-6 13.5,-9 30.5,-25.5 17,-16.5 26,-22.5 9,-6 29,-16 20,-10 33.5,-19 13.5,-9 18.5,-19 5,-10 5,-19 0,-9 -2.5,-19 -2.5,-10 -2.5,-16 0,-6 3.5,-17.5 3.5,-11.5 3.5,-21 0,-9.5 -7,-16.5 -7,-7 -23,-7 z m -246,8 h -6 l -12,2 q -12,2 -31,5.5 Q 413,237 399,239 297,308 215.5,444 134,580 121,703 q 50,26 60,36 11,11 48,25.5 37,14.5 40,30.5 2,13 -3.5,27.5 -5.5,14.5 -16.5,32 -11,17.5 -13,20.5 -3,6 -11.5,16 -8.5,10 -13,19 -4.5,9 -2.5,19 2,10 11,19 9,9 23,19 14,10 20,16 6,6 17,14 11,8 20,17 9,9 17,23 8,14 12.5,38 4.5,24 8.5,55 4,31 6,42 13,70 44,118 44,31 102,58 6,-16 10,-64 4,-48 6,-58 2,-10 6.5,-42.5 4.5,-32.5 9.5,-56.5 5,-24 11,-36 6,-12 11,-16.5 5,-4.5 9.5,-6.5 4.5,-2 7.5,-5 3,-3 8.5,-8 5.5,-5 10.5,-9.5 5,-4.5 9,-10.5 4,-6 8.5,-14.5 4.5,-8.5 9.5,-20 5,-11.5 8,-17.5 3,-6 11,-16 8,-10 12.5,-18.5 Q 643,940 641,930 639,920 630,911 621,902 607,891.5 593,881 587,875 581,869 571.5,857.5 562,846 553,837 q -9,-9 -21,-16 -12,-7 -30,-11.5 -18,-4.5 -40,-8 -22,-3.5 -31,-5.5 -12,-3 -44,-6 -32,-3 -58,-5 -26,-2 -27,-2 l -1,1 q -2,2 -4,-1 l -2,-2 q -3,-4 -3.5,-13 -0.5,-9 0.5,-24.5 1,-15.5 1,-19.5 0,-6 2,-13.5 2,-7.5 5,-13.5 3,-6 8,-18 5,-12 9,-21 l 4,-6 q 0,0 3,-4 3,-4 2,-2.5 -1,1.5 2,-2 3,-3.5 2.5,-1.5 l 4.5,-3 q 0,0 7,-5 4,-4 15.5,7 11.5,11 23.5,24 12,13 18,13 6,0 6,-24 0,-24 -2,-46 -2,-22 2,-30 9,-9 46,-39.5 37,-30.5 59.5,-55 Q 533,459 533,442 533,425 523.5,416 514,407 499,400.5 484,394 478,388 q -14,-7 -22.5,-0.5 -8.5,6.5 -35,18.5 -26.5,12 -53.5,12 -55,0 74,-103 10,-8 11,-9 3,-3 7.5,-6.5 4.5,-3.5 8,-6.5 3.5,-3 7,-7 3.5,-4 4.5,-7 3,-1 1,-14 l -1,-13 q 0,-4 3,-9.5 3,-5.5 5,-10 2,-4.5 0,-5.5 -2,-1 -6,-1 z m 721,82 q -18,2 -61,6 -43,4 -72.5,8.5 -29.5,4.5 -48.5,11.5 -20,8 -33.5,17 -13.5,9 -26,20 -12.5,11 -21.5,17 -9,6 -28.5,15 -19.5,9 -33,18 -13.5,9 -19.5,21 -6,12 -6,25.5 0,13.5 3,30 3,16.5 3,25.5 0,9 -6,28.5 -6,19.5 -6,33.5 0,14 12,20 12,6 25.5,-3 13.5,-9 30.5,-27.5 17,-18.5 26,-24.5 9,-6 27.5,-23 18.5,-17 32,-26 13.5,-9 21.5,-5 7,4 8.5,6 1.5,2 0.5,3.5 -1,1.5 -4,6.5 -3,5 -5,11 -2,7 -15,19.5 -13,12.5 -25,28.5 -12,16 -12,33 0,13 15,29 15,16 31,29 16,13 25.5,31.5 9.5,18.5 -3.5,36.5 -11,18 -44,15.5 -33,-2.5 -68,-15 -35,-12.5 -70,-19.5 -35,-7 -50,2 -20,13 -25,28 -5,15 -1.5,26.5 3.5,11.5 -1.5,26.5 -3,9 -12.5,25 -9.5,16 -14,29.5 -4.5,13.5 -0.5,26.5 4,13 17.5,21.5 13.5,8.5 33.5,17 20,8.5 30,15.5 81,56 82,58 1,2 27,135 2,27 3,62.5 1,35.5 1.5,68 0.5,32.5 18,61 17.5,28.5 53.5,39.5 53,-24 106,-60 3,-9 16,-45 13,-36 19,-49 7,-13 27,-49.5 20,-36.5 34.5,-65.5 14.5,-29 18.5,-46 4,-17 4,-26 0,-9 -2,-16 -2,-7 -2,-13 l 3,-25 q 2,-24 -3,-29 -3,-11 -12,-24.5 -9,-13.5 -22.5,-30.5 -13.5,-17 -19.5,-26 -6,-9 -16.5,-27.5 -10.5,-18.5 -19.5,-32 -9,-13.5 -18,-21.5 -11,-9 -31,-16 -20,-7 -23,-11 -4,-4 -4,-13 0,-1 -0.5,-3 -0.5,-2 -0.5,-3 0,-1 1.5,-3.5 1.5,-2.5 4.5,-4.5 18,-14 54,0 9,4 18,13 9,9 19.5,22 10.5,13 16.5,19 6,6 14.5,20.5 8.5,14.5 17.5,23.5 9,9 22,10 13,1 26.5,-8 13.5,-9 29.5,-24.5 16,-15.5 25,-21.5 9,-6 24.5,-21 15.5,-15 28,-24.5 Q 1384,712 1395,712 1386,614 1329.5,495.5 1273,377 1202,308 Z"
     id="path2" />
</svg>
